<mxfile host="app.diagrams.net" agent="Mozilla/5.0 (Windows NT 10.0; Win64; x64) AppleWebKit/537.36 (KHTML, like Gecko) Chrome/132.0.0.0 Safari/537.36" version="26.0.13" pages="2">
  <diagram name="Page-1" id="zYQrIgOE_CPFeeFGVamT">
    <mxGraphModel dx="1861" dy="1581" grid="1" gridSize="10" guides="1" tooltips="1" connect="1" arrows="1" fold="1" page="1" pageScale="1" pageWidth="827" pageHeight="1169" math="0" shadow="0">
      <root>
        <mxCell id="0" />
        <mxCell id="1" parent="0" />
        <mxCell id="WgEcEEECjXnikogUkaug-5" value="" style="rounded=0;whiteSpace=wrap;html=1;" vertex="1" parent="1">
          <mxGeometry x="230" y="-120" width="280" height="160" as="geometry" />
        </mxCell>
        <mxCell id="WgEcEEECjXnikogUkaug-7" style="edgeStyle=orthogonalEdgeStyle;rounded=0;orthogonalLoop=1;jettySize=auto;html=1;entryX=0;entryY=0.25;entryDx=0;entryDy=0;" edge="1" parent="1" source="WgEcEEECjXnikogUkaug-1" target="WgEcEEECjXnikogUkaug-5">
          <mxGeometry relative="1" as="geometry" />
        </mxCell>
        <mxCell id="WgEcEEECjXnikogUkaug-8" value="pull the code" style="edgeLabel;html=1;align=center;verticalAlign=middle;resizable=0;points=[];" vertex="1" connectable="0" parent="WgEcEEECjXnikogUkaug-7">
          <mxGeometry x="0.08" y="3" relative="1" as="geometry">
            <mxPoint as="offset" />
          </mxGeometry>
        </mxCell>
        <mxCell id="WgEcEEECjXnikogUkaug-1" value="User 1" style="rounded=0;whiteSpace=wrap;html=1;" vertex="1" parent="1">
          <mxGeometry x="120" y="120" width="120" height="60" as="geometry" />
        </mxCell>
        <mxCell id="WgEcEEECjXnikogUkaug-10" style="edgeStyle=orthogonalEdgeStyle;rounded=0;orthogonalLoop=1;jettySize=auto;html=1;entryX=1;entryY=0.25;entryDx=0;entryDy=0;" edge="1" parent="1" source="WgEcEEECjXnikogUkaug-2" target="WgEcEEECjXnikogUkaug-5">
          <mxGeometry relative="1" as="geometry" />
        </mxCell>
        <mxCell id="WgEcEEECjXnikogUkaug-11" value="pull the code" style="edgeLabel;html=1;align=center;verticalAlign=middle;resizable=0;points=[];" vertex="1" connectable="0" parent="WgEcEEECjXnikogUkaug-10">
          <mxGeometry x="-0.0538" y="-1" relative="1" as="geometry">
            <mxPoint as="offset" />
          </mxGeometry>
        </mxCell>
        <mxCell id="WgEcEEECjXnikogUkaug-2" value="User 2" style="rounded=0;whiteSpace=wrap;html=1;" vertex="1" parent="1">
          <mxGeometry x="510" y="120" width="120" height="60" as="geometry" />
        </mxCell>
        <mxCell id="WgEcEEECjXnikogUkaug-15" style="edgeStyle=orthogonalEdgeStyle;rounded=0;orthogonalLoop=1;jettySize=auto;html=1;entryX=0.5;entryY=1;entryDx=0;entryDy=0;" edge="1" parent="1" source="WgEcEEECjXnikogUkaug-3" target="WgEcEEECjXnikogUkaug-14">
          <mxGeometry relative="1" as="geometry" />
        </mxCell>
        <mxCell id="WgEcEEECjXnikogUkaug-16" value="ec2 got created" style="edgeLabel;html=1;align=center;verticalAlign=middle;resizable=0;points=[];" vertex="1" connectable="0" parent="WgEcEEECjXnikogUkaug-15">
          <mxGeometry x="0.6727" y="-1" relative="1" as="geometry">
            <mxPoint as="offset" />
          </mxGeometry>
        </mxCell>
        <mxCell id="WgEcEEECjXnikogUkaug-20" style="edgeStyle=orthogonalEdgeStyle;rounded=0;orthogonalLoop=1;jettySize=auto;html=1;entryX=0.5;entryY=1;entryDx=0;entryDy=0;" edge="1" parent="1" source="WgEcEEECjXnikogUkaug-3" target="WgEcEEECjXnikogUkaug-19">
          <mxGeometry relative="1" as="geometry" />
        </mxCell>
        <mxCell id="WgEcEEECjXnikogUkaug-21" value="terraform.tfstate&lt;div&gt;&amp;nbsp;will be&amp;nbsp;&lt;div&gt;placed/updated in the s3 bucket&lt;/div&gt;&lt;/div&gt;" style="edgeLabel;html=1;align=center;verticalAlign=middle;resizable=0;points=[];" vertex="1" connectable="0" parent="WgEcEEECjXnikogUkaug-20">
          <mxGeometry x="0.7333" relative="1" as="geometry">
            <mxPoint as="offset" />
          </mxGeometry>
        </mxCell>
        <mxCell id="WgEcEEECjXnikogUkaug-3" value="terraform apply&lt;div&gt;with local state&lt;/div&gt;" style="ellipse;whiteSpace=wrap;html=1;aspect=fixed;" vertex="1" parent="1">
          <mxGeometry x="200" y="60" width="80" height="80" as="geometry" />
        </mxCell>
        <mxCell id="WgEcEEECjXnikogUkaug-4" value="terraform code for creating ec2 instance with local state" style="rounded=1;whiteSpace=wrap;html=1;" vertex="1" parent="1">
          <mxGeometry x="310" y="-90" width="120" height="60" as="geometry" />
        </mxCell>
        <mxCell id="WgEcEEECjXnikogUkaug-6" value="git repo" style="text;html=1;align=center;verticalAlign=middle;whiteSpace=wrap;rounded=0;" vertex="1" parent="1">
          <mxGeometry x="340" y="10" width="60" height="30" as="geometry" />
        </mxCell>
        <mxCell id="WgEcEEECjXnikogUkaug-9" value="state file resides in user1&#39;s laptop" style="ellipse;whiteSpace=wrap;html=1;aspect=fixed;" vertex="1" parent="1">
          <mxGeometry x="210" y="160" width="80" height="80" as="geometry" />
        </mxCell>
        <mxCell id="WgEcEEECjXnikogUkaug-17" style="edgeStyle=orthogonalEdgeStyle;rounded=0;orthogonalLoop=1;jettySize=auto;html=1;entryX=0.5;entryY=1;entryDx=0;entryDy=0;" edge="1" parent="1" source="WgEcEEECjXnikogUkaug-12" target="WgEcEEECjXnikogUkaug-14">
          <mxGeometry relative="1" as="geometry">
            <Array as="points">
              <mxPoint x="500" y="270" />
              <mxPoint x="-50" y="270" />
            </Array>
          </mxGeometry>
        </mxCell>
        <mxCell id="WgEcEEECjXnikogUkaug-18" value="fail as ec2 is existing and user2 has no idea about it...because it does not have the visibility of the current state in aws" style="edgeLabel;html=1;align=center;verticalAlign=middle;resizable=0;points=[];" vertex="1" connectable="0" parent="WgEcEEECjXnikogUkaug-17">
          <mxGeometry x="-0.4007" y="5" relative="1" as="geometry">
            <mxPoint as="offset" />
          </mxGeometry>
        </mxCell>
        <mxCell id="WgEcEEECjXnikogUkaug-22" style="edgeStyle=orthogonalEdgeStyle;rounded=0;orthogonalLoop=1;jettySize=auto;html=1;" edge="1" parent="1" source="WgEcEEECjXnikogUkaug-12" target="WgEcEEECjXnikogUkaug-19">
          <mxGeometry relative="1" as="geometry">
            <Array as="points">
              <mxPoint x="500" y="250" />
              <mxPoint x="45" y="250" />
            </Array>
          </mxGeometry>
        </mxCell>
        <mxCell id="WgEcEEECjXnikogUkaug-23" value="while running terraform plan, user2 will know that the ec2 is already existing" style="edgeLabel;html=1;align=center;verticalAlign=middle;resizable=0;points=[];" vertex="1" connectable="0" parent="WgEcEEECjXnikogUkaug-22">
          <mxGeometry x="-0.482" y="-1" relative="1" as="geometry">
            <mxPoint as="offset" />
          </mxGeometry>
        </mxCell>
        <mxCell id="WgEcEEECjXnikogUkaug-12" value="terraform apply" style="ellipse;whiteSpace=wrap;html=1;aspect=fixed;" vertex="1" parent="1">
          <mxGeometry x="460" y="70" width="80" height="80" as="geometry" />
        </mxCell>
        <mxCell id="WgEcEEECjXnikogUkaug-13" value="apply will fail, saying that the ec2 already exists" style="rounded=0;whiteSpace=wrap;html=1;" vertex="1" parent="1">
          <mxGeometry x="400" y="130" width="120" height="60" as="geometry" />
        </mxCell>
        <mxCell id="WgEcEEECjXnikogUkaug-14" value="AWS" style="whiteSpace=wrap;html=1;aspect=fixed;" vertex="1" parent="1">
          <mxGeometry x="-90" y="-60" width="80" height="80" as="geometry" />
        </mxCell>
        <mxCell id="WgEcEEECjXnikogUkaug-19" value="s3 bucket is used for remote state mgnt in terraform" style="ellipse;whiteSpace=wrap;html=1;aspect=fixed;" vertex="1" parent="1">
          <mxGeometry x="-10" y="-130" width="110" height="110" as="geometry" />
        </mxCell>
        <mxCell id="WgEcEEECjXnikogUkaug-24" value="" style="html=1;verticalLabelPosition=bottom;align=center;labelBackgroundColor=#ffffff;verticalAlign=top;strokeWidth=2;strokeColor=#0080F0;shadow=0;dashed=0;shape=mxgraph.ios7.icons.locked;" vertex="1" parent="1">
          <mxGeometry x="60" y="-55" width="24" height="30" as="geometry" />
        </mxCell>
        <mxCell id="WgEcEEECjXnikogUkaug-25" value="dynamoDB table" style="rounded=1;whiteSpace=wrap;html=1;" vertex="1" parent="1">
          <mxGeometry x="90" y="-140" width="100" height="60" as="geometry" />
        </mxCell>
      </root>
    </mxGraphModel>
  </diagram>
  <diagram id="8eHoqT82Qg_WuEYC3FRL" name="Page-2">
    <mxGraphModel dx="1861" dy="412" grid="1" gridSize="10" guides="1" tooltips="1" connect="1" arrows="1" fold="1" page="1" pageScale="1" pageWidth="827" pageHeight="1169" math="0" shadow="0">
      <root>
        <mxCell id="0" />
        <mxCell id="1" parent="0" />
        <mxCell id="rZ7RSgs4yUZMlDeJ9wwK-5" style="edgeStyle=orthogonalEdgeStyle;rounded=0;orthogonalLoop=1;jettySize=auto;html=1;" edge="1" parent="1" source="rZ7RSgs4yUZMlDeJ9wwK-1" target="rZ7RSgs4yUZMlDeJ9wwK-4">
          <mxGeometry relative="1" as="geometry" />
        </mxCell>
        <mxCell id="rZ7RSgs4yUZMlDeJ9wwK-8" style="edgeStyle=orthogonalEdgeStyle;rounded=0;orthogonalLoop=1;jettySize=auto;html=1;" edge="1" parent="1" source="rZ7RSgs4yUZMlDeJ9wwK-1" target="rZ7RSgs4yUZMlDeJ9wwK-7">
          <mxGeometry relative="1" as="geometry">
            <Array as="points">
              <mxPoint x="-15" y="290" />
              <mxPoint x="329" y="290" />
              <mxPoint x="329" y="237" />
            </Array>
          </mxGeometry>
        </mxCell>
        <mxCell id="rZ7RSgs4yUZMlDeJ9wwK-1" value="Terraform" style="rounded=0;whiteSpace=wrap;html=1;" vertex="1" parent="1">
          <mxGeometry x="-80" y="60" width="130" height="130" as="geometry" />
        </mxCell>
        <mxCell id="rZ7RSgs4yUZMlDeJ9wwK-4" value="" style="outlineConnect=0;dashed=0;verticalLabelPosition=bottom;verticalAlign=top;align=center;html=1;shape=mxgraph.aws3.cloud_2;fillColor=#F58534;gradientColor=none;" vertex="1" parent="1">
          <mxGeometry x="610" y="87.5" width="75" height="75" as="geometry" />
        </mxCell>
        <mxCell id="rZ7RSgs4yUZMlDeJ9wwK-6" value="Provision or create service on AWS" style="rounded=1;whiteSpace=wrap;html=1;" vertex="1" parent="1">
          <mxGeometry x="240" y="70" width="120" height="60" as="geometry" />
        </mxCell>
        <mxCell id="rZ7RSgs4yUZMlDeJ9wwK-7" value="" style="outlineConnect=0;dashed=0;verticalLabelPosition=bottom;verticalAlign=top;align=center;html=1;shape=mxgraph.aws3.ec2;fillColor=#F58534;gradientColor=none;" vertex="1" parent="1">
          <mxGeometry x="630" y="190" width="76.5" height="93" as="geometry" />
        </mxCell>
        <mxCell id="rZ7RSgs4yUZMlDeJ9wwK-9" value="can you also do following:&lt;div&gt;- install nginx&lt;br&gt;&lt;div&gt;- copy files in this ec2 server (file provisioner in terraform)&lt;/div&gt;&lt;div&gt;&lt;br&gt;&lt;/div&gt;&lt;/div&gt;" style="rounded=1;whiteSpace=wrap;html=1;" vertex="1" parent="1">
          <mxGeometry x="565" y="283" width="225" height="117" as="geometry" />
        </mxCell>
      </root>
    </mxGraphModel>
  </diagram>
</mxfile>
